<svg id="Layer_1" data-name="Layer 1" xmlns="http://www.w3.org/2000/svg" viewBox="0 0 307.58 82.98"><defs><style>.cls-1{fill:#616161;}.cls-2{fill:#f37726;}</style></defs><path class="cls-1" d="M27,63.43V59.74l4.78-.83V25.32L27,24.49V20.77H39.47L53.2,53.15h.19l13.3-32.38H79.55v3.72l-4.79.83V58.91l4.79.83v3.69H64.22V59.74l5-.83V28.65l-.14,0L55.26,61.9H51.42L37.09,28.68l-.14,0,.21,17.84V58.91l5.15.83v3.69ZM91.35,76.22a13.26,13.26,0,0,1-1.75-.15c-.72-.11-1.28-.21-1.67-.31l.59-4.54a12.21,12.21,0,0,0,1.36.1c.59,0,1,0,1.22,0a3.69,3.69,0,0,0,3-1.4,15.13,15.13,0,0,0,2.15-3.83l1.38-3.34L86.41,35.91,83,35.44V31.72H96.3v3.72l-3.83.6,6.17,15.84,1.5,4.14h.18l7.32-20-4-.6V31.72h13v3.72l-3.28.47L100.88,68.29a19,19,0,0,1-2.13,4.09,9.13,9.13,0,0,1-3,2.81A8.6,8.6,0,0,1,91.35,76.22ZM135,64a24.79,24.79,0,0,1-7.5-1.14,24.21,24.21,0,0,1-6.87-3.52V50.27h4.48l1,6.7a17,17,0,0,0,4.13,1.83,17.26,17.26,0,0,0,4.81.64,12.24,12.24,0,0,0,5-.89,7.05,7.05,0,0,0,3.11-2.47,6.84,6.84,0,0,0,.16-7.15,7.79,7.79,0,0,0-3.1-2.63,24.72,24.72,0,0,0-5.87-2,27.61,27.61,0,0,1-7.42-2.74,12.83,12.83,0,0,1-4.61-4.15,10.17,10.17,0,0,1-1.57-5.61,10.43,10.43,0,0,1,1.77-6,12.13,12.13,0,0,1,4.94-4.16,16.82,16.82,0,0,1,7.39-1.53,21.34,21.34,0,0,1,7.92,1.36,19.44,19.44,0,0,1,5.67,3.3v8.51h-4.48l-1-6.09a11.47,11.47,0,0,0-3.29-1.75,14.48,14.48,0,0,0-4.86-.7,10.17,10.17,0,0,0-4.33.86,7,7,0,0,0-2.94,2.42,6.34,6.34,0,0,0-1,3.65,5.57,5.57,0,0,0,.95,3.24,7.85,7.85,0,0,0,3.09,2.42,31.77,31.77,0,0,0,5.77,1.94Q143,41,146.44,44.26a10.61,10.61,0,0,1,3.49,8.06,10.35,10.35,0,0,1-1.86,6.09,12.28,12.28,0,0,1-5.21,4.14A19.32,19.32,0,0,1,135,64Zm30.47-.61V59.74l4.79-.83V25.13h-9.68l-.84,5.92h-4.34V20.77h35.45V31.05h-4.28l-.88-5.92H176V58.91l4.78.83v3.69Z"/><path class="cls-2" d="M24,83q-8.25-2.33-11.75-7.4A21.21,21.21,0,0,1,8.8,63.3V54.63q0-4.74-2.16-7.38T0,44.61V38.38q4.49,0,6.64-2.6T8.8,28.39v-8.7a21.14,21.14,0,0,1,3.48-12.3Q15.77,2.34,24,0l1.69,5a10.7,10.7,0,0,0-6.63,5.32,20.45,20.45,0,0,0-2,9.42v8.7a16.58,16.58,0,0,1-1.79,7.84A12.45,12.45,0,0,1,10,41.52a12.5,12.5,0,0,1,5.36,5.34,16.49,16.49,0,0,1,1.79,7.77V63.3a20.15,20.15,0,0,0,2,9.37A10.85,10.85,0,0,0,25.72,78Z"/><path class="cls-2" d="M191.24,82.46l-1.67-4.93A10.72,10.72,0,0,0,196,72.3a19.56,19.56,0,0,0,2-9.22V54.53a15.61,15.61,0,0,1,1.87-7.78,12.27,12.27,0,0,1,5.78-5.14,11.77,11.77,0,0,1-5.78-5A15.83,15.83,0,0,1,198,28.71V20.13a19.86,19.86,0,0,0-2-9.27,10.52,10.52,0,0,0-6.45-5.23L191.24.75Q199.31,3,202.75,8a20.82,20.82,0,0,1,3.44,12.11v8.58q0,4.7,2.13,7.26c1.41,1.71,3.61,2.56,6.57,2.56v6.13c-3,0-5.16.87-6.57,2.61s-2.13,4.15-2.13,7.26v8.55a20.81,20.81,0,0,1-3.44,12.08Q199.32,80.16,191.24,82.46Z"/><path class="cls-1" d="M226.67,63.43V59.74l4.77-.83V25.32l-4.77-.83V20.77h10.59L258.19,54l.17-.06V25.32l-5.24-.83V20.77h15.32v3.72l-4.77.83V63.43h-5.28L236.92,30l-.17,0V58.91l5.23.83v3.69Zm46.58,0V59.74l4.78-.83V25.32l-4.78-.83V20.77h18.39q6.69,0,10.45,2.89t3.77,8.66a7.9,7.9,0,0,1-1.81,5.08,10.77,10.77,0,0,1-4.75,3.32,10.05,10.05,0,0,1,4.42,2.07,10.21,10.21,0,0,1,2.84,3.75,11.44,11.44,0,0,1,1,4.84q0,5.86-3.82,8.95t-10.29,3.1Zm10.55-4.52h9.67A8.83,8.83,0,0,0,299.59,57a7,7,0,0,0,2.19-5.53,10.3,10.3,0,0,0-.81-4.29,5.88,5.88,0,0,0-2.46-2.77,8.09,8.09,0,0,0-4.17-1H283.8Zm0-20h9.34a7,7,0,0,0,5-1.8,6.42,6.42,0,0,0,1.92-4.92A6.15,6.15,0,0,0,297.91,27q-2.16-1.72-6.27-1.72H283.8Z"/></svg>
