<svg id="Layer_1" data-name="Layer 1" xmlns="http://www.w3.org/2000/svg" viewBox="0 0 81.78 65.42"><defs><style>.cls-1{fill:#616161;}.cls-2{fill:#f37726;}</style></defs><title>logo-square</title><path class="cls-1" d="M8.43,34.12V31.17l3.81-.65V3.63L8.43,3V0h8.48L33.65,26.59l.14,0V3.63L29.58,3V0H41.85V3L38,3.63V34.12H33.8L16.63,7.38l-.14,0v23.1l4.19.65v2.95Zm37.26,0V31.17l3.82-.65V3.63L45.69,3V0H60.41C64,0,66.76.77,68.76,2.31s3,3.84,3,6.92a6.35,6.35,0,0,1-1.44,4.07A8.48,8.48,0,0,1,66.52,16a7.82,7.82,0,0,1,3.53,1.66,8.38,8.38,0,0,1,2.3,3,9.19,9.19,0,0,1,.81,3.87,8.71,8.71,0,0,1-3,7.18q-3,2.46-8.25,2.46Zm8.44-3.6h7.73A7.13,7.13,0,0,0,66.77,29a5.6,5.6,0,0,0,1.75-4.42,8.15,8.15,0,0,0-.66-3.44,4.67,4.67,0,0,0-2-2.2,6.46,6.46,0,0,0-3.33-.78H54.13Zm0-16H61.6a5.6,5.6,0,0,0,4-1.44,5.06,5.06,0,0,0,1.55-3.92A5,5,0,0,0,65.43,5a7.92,7.92,0,0,0-5-1.37H54.13Z"/><path class="cls-2" d="M4.8,40.14q2.7,8.45,13.78,8.75h9.17q9.63,0,13.13,7.53Q44.3,48.89,54,48.89h8.45q11.76,0,14.55-8.72l4.78,1.59Q79.71,49.14,75,52.84T62.63,56.59H53.88q-10,0-10,8.83h-6q0-8.84-10.13-8.83H19.33q-7.83,0-12.53-3.78T0,41.76Z"/></svg>
