<svg id="Layer_1" data-name="Layer 1" xmlns="http://www.w3.org/2000/svg" viewBox="0 0 214.89 116.04"><defs><style>.cls-1{fill:#616161;}.cls-2{fill:#f37726;}</style></defs><title>logo-wide</title><path class="cls-1" d="M27,63.43V59.74l4.78-.83V25.32L27,24.49V20.77H39.47L53.2,53.15h.19l13.3-32.38H79.55v3.72l-4.79.83V58.91l4.79.83v3.69H64.22V59.74l5-.83V28.65l-.14,0L55.26,61.9H51.42L37.09,28.68l-.14,0,.21,17.84V58.91l5.15.83v3.69ZM91.35,76.22a13.26,13.26,0,0,1-1.75-.15c-.72-.11-1.28-.21-1.67-.31l.59-4.54a12.21,12.21,0,0,0,1.36.1c.59,0,1,0,1.22,0a3.69,3.69,0,0,0,3-1.4,15.13,15.13,0,0,0,2.15-3.83l1.38-3.34L86.41,35.91,83,35.44V31.72H96.3v3.72l-3.83.6,6.17,15.84,1.5,4.14h.18l7.32-20-4-.6V31.72h13v3.72l-3.28.47L100.88,68.29a19,19,0,0,1-2.13,4.09,9.13,9.13,0,0,1-3,2.81A8.6,8.6,0,0,1,91.35,76.22ZM135,64a24.79,24.79,0,0,1-7.5-1.14,24.21,24.21,0,0,1-6.87-3.52V50.27h4.48l1,6.7a17,17,0,0,0,4.13,1.83,17.26,17.26,0,0,0,4.81.64,12.24,12.24,0,0,0,5-.89,7.05,7.05,0,0,0,3.11-2.47,6.84,6.84,0,0,0,.16-7.15,7.79,7.79,0,0,0-3.1-2.63,24.72,24.72,0,0,0-5.87-2,27.61,27.61,0,0,1-7.42-2.74,12.83,12.83,0,0,1-4.61-4.15,10.17,10.17,0,0,1-1.57-5.61,10.43,10.43,0,0,1,1.77-6,12.13,12.13,0,0,1,4.94-4.16,16.82,16.82,0,0,1,7.39-1.53,21.34,21.34,0,0,1,7.92,1.36,19.44,19.44,0,0,1,5.67,3.3v8.51h-4.48l-1-6.09a11.47,11.47,0,0,0-3.29-1.75,14.48,14.48,0,0,0-4.86-.7,10.17,10.17,0,0,0-4.33.86,7,7,0,0,0-2.94,2.42,6.34,6.34,0,0,0-1,3.65,5.57,5.57,0,0,0,.95,3.24,7.85,7.85,0,0,0,3.09,2.42,31.77,31.77,0,0,0,5.77,1.94Q143,41,146.44,44.26a10.61,10.61,0,0,1,3.49,8.06,10.35,10.35,0,0,1-1.86,6.09,12.28,12.28,0,0,1-5.21,4.14A19.32,19.32,0,0,1,135,64Zm30.47-.61V59.74l4.79-.83V25.13h-9.68l-.84,5.92h-4.34V20.77h35.45V31.05h-4.28l-.88-5.92H176V58.91l4.78.83v3.69Z"/><path class="cls-2" d="M24,83q-8.25-2.33-11.75-7.4A21.21,21.21,0,0,1,8.8,63.3V54.63q0-4.74-2.16-7.38T0,44.61V38.38q4.49,0,6.64-2.6T8.8,28.39v-8.7a21.14,21.14,0,0,1,3.48-12.3Q15.77,2.34,24,0l1.69,5a10.7,10.7,0,0,0-6.63,5.32,20.45,20.45,0,0,0-2,9.42v8.7a16.58,16.58,0,0,1-1.79,7.84A12.45,12.45,0,0,1,10,41.52a12.5,12.5,0,0,1,5.36,5.34,16.49,16.49,0,0,1,1.79,7.77V63.3a20.15,20.15,0,0,0,2,9.37A10.85,10.85,0,0,0,25.72,78Z"/><path class="cls-2" d="M191.24,82.46l-1.67-4.93A10.72,10.72,0,0,0,196,72.3a19.56,19.56,0,0,0,2-9.22V54.53a15.61,15.61,0,0,1,1.87-7.78,12.27,12.27,0,0,1,5.78-5.14,11.77,11.77,0,0,1-5.78-5A15.83,15.83,0,0,1,198,28.71V20.13a19.86,19.86,0,0,0-2-9.27,10.52,10.52,0,0,0-6.45-5.23L191.24.75Q199.31,3,202.75,8a20.82,20.82,0,0,1,3.44,12.11v8.58q0,4.7,2.13,7.26c1.41,1.71,3.61,2.56,6.57,2.56v6.13c-3,0-5.16.87-6.57,2.61s-2.13,4.15-2.13,7.26v8.55a20.81,20.81,0,0,1-3.44,12.08Q199.32,80.16,191.24,82.46Z"/><path class="cls-1" d="M39.88,95.14q3.61,0,5.24,1.84a7.71,7.71,0,0,1,1.64,5.28v13.32h-3.3V101.94a3.81,3.81,0,0,0-1.08-2.8,4,4,0,0,0-3-1.11A5.59,5.59,0,0,0,35,99.73a6.3,6.3,0,0,0-1.56,4.42v11.43H30.2v-20h3.09v3.17h.08A7.12,7.12,0,0,1,36.06,96,7.84,7.84,0,0,1,39.88,95.14Zm20.44,0a9,9,0,0,1,7.11,2.92A10.94,10.94,0,0,1,70,105.61a10.78,10.78,0,0,1-2.64,7.56A9.1,9.1,0,0,1,60.32,116a9.26,9.26,0,0,1-7-2.82,10.69,10.69,0,0,1-2.67-7.61A10.79,10.79,0,0,1,53.24,98,9.13,9.13,0,0,1,60.32,95.14ZM54.1,105.61a8.17,8.17,0,0,0,1.75,5.48,5.9,5.9,0,0,0,8.94,0,9.43,9.43,0,0,0,0-11,5.84,5.84,0,0,0-8.92,0A8.14,8.14,0,0,0,54.1,105.61Zm24.37-16v6h4V98.5h-4V111c0,1,.33,1.52,1,1.58s1.34.08,2.06.08h.92v2.91h-2.7c-1.81,0-3-.32-3.64-1a4.57,4.57,0,0,1-.93-3.23V98.5h-3.4V95.59h3.4v-6Zm15.44,5.53a7.93,7.93,0,0,1,6.67,3.09,12.63,12.63,0,0,1,2.39,7.94v.41H88v.23a6.33,6.33,0,0,0,1.66,4.59,6,6,0,0,0,4.56,1.74,5.46,5.46,0,0,0,3.48-1,4.71,4.71,0,0,0,1.69-2.89h3.25a8.17,8.17,0,0,1-2.9,5.08A8.93,8.93,0,0,1,94.11,116a9.58,9.58,0,0,1-5.34-1.42,8.45,8.45,0,0,1-3.22-4,13.69,13.69,0,0,1-1-5.2,10.63,10.63,0,0,1,2.65-7.38A8.69,8.69,0,0,1,93.91,95.14ZM88,103.67H99.47a5.94,5.94,0,0,0-1.77-4,5.46,5.46,0,0,0-4-1.61,5.41,5.41,0,0,0-3.87,1.53A6.13,6.13,0,0,0,88,103.67ZM109.76,88V98.31h.08A5.11,5.11,0,0,1,112.25,96a9,9,0,0,1,4-.81,8.27,8.27,0,0,1,6.73,3,11.33,11.33,0,0,1,2.47,7.56,11.21,11.21,0,0,1-2.45,7.52,8.3,8.3,0,0,1-6.66,2.87,9.2,9.2,0,0,1-3.66-.76,6.36,6.36,0,0,1-2.81-2.36h-.08v2.66h-3.29V88Zm-.12,17.6a8.46,8.46,0,0,0,1.67,5.51,5.68,5.68,0,0,0,4.64,2,5.25,5.25,0,0,0,4.41-2,9.14,9.14,0,0,0,1.58-5.69,8.27,8.27,0,0,0-1.66-5.3A5.51,5.51,0,0,0,115.72,98a5.33,5.33,0,0,0-4.49,2.11A8.78,8.78,0,0,0,109.64,105.58ZM137.9,95.14A9,9,0,0,1,145,98.06a10.94,10.94,0,0,1,2.59,7.55,10.78,10.78,0,0,1-2.64,7.56A9.1,9.1,0,0,1,137.9,116a9.26,9.26,0,0,1-7-2.82,10.65,10.65,0,0,1-2.68-7.61A10.8,10.8,0,0,1,130.82,98,9.13,9.13,0,0,1,137.9,95.14Zm-6.22,10.47a8.12,8.12,0,0,0,1.75,5.48,5.9,5.9,0,0,0,8.94,0,9.43,9.43,0,0,0,0-11,5.85,5.85,0,0,0-8.93,0A8.19,8.19,0,0,0,131.68,105.61Zm28.41-10.47a9,9,0,0,1,7.11,2.92,10.94,10.94,0,0,1,2.6,7.55,10.78,10.78,0,0,1-2.64,7.56,9.12,9.12,0,0,1-7.07,2.87,9.27,9.27,0,0,1-7-2.82,10.69,10.69,0,0,1-2.67-7.61A10.8,10.8,0,0,1,153,98,9.12,9.12,0,0,1,160.09,95.14Zm-6.21,10.47a8.12,8.12,0,0,0,1.75,5.48,5.89,5.89,0,0,0,8.93,0,9.38,9.38,0,0,0,0-11,5.84,5.84,0,0,0-8.92,0A8.14,8.14,0,0,0,153.88,105.61ZM177.15,88v16.35l9.13-8.74h4.4l-7.94,7.27,8.52,12.72h-4.17l-6.85-10.44L177.15,108v7.57h-3.3V88Z"/></svg>
